<?xml version="1.0" standalone="no"?>
<!DOCTYPE svg PUBLIC "-//W3C//DTD SVG 20010904//EN"
 "http://www.w3.org/TR/2001/REC-SVG-20010904/DTD/svg10.dtd">
<svg version="1.0" xmlns="http://www.w3.org/2000/svg"
 width="740.000000pt" height="250.000000pt" viewBox="0 0 740.000000 250.000000"
 preserveAspectRatio="xMidYMid meet">

<g transform="translate(0.000000,250.000000) scale(0.100000,-0.100000)"
fill="#000000" stroke="none">
<path d="M0 1250 l0 -1250 3700 0 3700 0 0 1250 0 1250 -3700 0 -3700 0 0
-1250z m4703 732 c35 -31 14 -104 -33 -113 -29 -6 -67 11 -77 34 -34 73 48
132 110 79z m-3703 -307 c130 -303 270 -634 270 -641 0 -3 -15 -4 -32 -2 -31
3 -35 8 -75 103 l-42 100 -180 3 c-100 1 -181 4 -181 7 0 2 4 15 10 29 l10 26
155 0 155 0 -17 43 c-55 141 -201 469 -209 469 -5 0 -84 -175 -175 -388 l-166
-389 -37 -3 -36 -3 31 73 c83 196 362 845 371 862 10 19 11 18 23 -5 7 -13 63
-141 125 -284z m2783 155 c187 -435 252 -578 259 -566 6 10 169 384 294 674
14 30 17 32 69 32 29 0 56 -4 59 -8 2 -4 -14 -48 -36 -97 -23 -50 -119 -263
-214 -475 -95 -211 -176 -386 -181 -387 -4 -2 -26 39 -47 90 -22 50 -79 182
-127 292 -48 110 -123 284 -168 386 -45 103 -81 190 -81 193 0 4 26 6 57 4
l58 -3 58 -135z m2005 3 l3 -103 49 0 c72 0 80 -5 80 -56 l0 -44 -65 0 -65 0
0 -200 c0 -217 4 -238 55 -278 21 -17 25 -28 25 -77 0 -54 -1 -56 -22 -49 -39
12 -116 73 -140 112 -22 35 -23 49 -28 262 l-5 225 -55 3 c-30 2 -57 7 -60 12
-3 5 -4 27 -2 50 l4 40 59 0 59 0 0 106 0 105 53 -3 52 -3 3 -102z m-3865
-123 c117 -44 197 -157 205 -287 l4 -73 -316 0 c-358 0 -331 8 -299 -86 23
-69 111 -156 176 -173 61 -18 181 -10 227 14 19 10 52 35 72 57 32 34 39 38
57 28 12 -6 21 -15 21 -20 0 -21 -76 -93 -124 -118 -46 -25 -61 -27 -161 -27
-103 0 -113 2 -160 29 -67 39 -117 93 -151 162 -40 81 -46 212 -14 296 39 104
145 197 250 219 56 12 150 3 213 -21z m770 20 c11 0 17 -8 17 -22 0 -36 -11
-43 -72 -43 -73 -1 -130 -38 -167 -110 -25 -48 -26 -55 -29 -287 l-3 -238 -35
0 -34 0 0 345 0 345 30 0 c26 0 30 -4 31 -27 1 -16 2 -32 4 -38 1 -5 3 -18 3
-27 2 -12 14 -4 45 28 45 48 133 88 172 79 11 -3 28 -5 38 -5z m632 -24 c67
-30 149 -111 176 -171 48 -108 44 -229 -9 -328 -36 -67 -120 -141 -187 -166
-75 -28 -185 -28 -260 0 -67 25 -151 99 -187 166 -111 203 5 466 229 523 64
16 176 5 238 -24z m1936 24 c40 -11 101 -49 105 -65 1 -5 -13 -23 -32 -38
l-34 -29 -34 21 c-48 30 -136 29 -170 -1 -13 -13 -27 -37 -31 -54 -9 -48 24
-79 139 -133 118 -56 168 -100 185 -166 33 -132 -73 -245 -230 -245 -76 0
-120 13 -166 47 -58 43 -59 58 -7 88 l45 26 28 -30 c72 -77 221 -38 221 59 0
55 -27 82 -142 140 -121 61 -144 80 -170 139 -39 86 -2 176 91 224 59 29 134
36 202 17z m1304 -14 c28 -12 68 -39 89 -59 21 -21 40 -37 42 -37 2 0 4 25 4
56 l0 55 53 -3 52 -3 0 -345 0 -345 -52 -3 -53 -3 0 61 0 61 -31 -36 c-45 -51
-104 -82 -180 -95 -149 -26 -301 54 -369 195 -96 198 12 452 220 516 14 4 59
8 100 8 59 1 86 -4 125 -23z m-1886 8 l31 -6 0 -344 0 -344 -54 0 c-52 0 -54
1 -60 31 -8 40 -8 632 0 653 7 17 32 20 83 10z m-2256 -1051 c64 -32 87 -134
47 -201 -34 -55 -73 -72 -167 -72 l-83 0 0 144 0 145 33 3 c56 5 141 -4 170
-19z m499 17 c81 -23 101 -108 39 -160 l-30 -26 29 -44 c17 -25 30 -51 30 -57
0 -30 -31 -9 -67 45 -35 50 -44 57 -76 60 l-36 3 -3 -58 c-2 -46 -7 -59 -20
-61 -17 -3 -18 9 -18 146 0 82 3 152 7 155 10 11 103 8 145 -3z m568 -9 c49
-26 83 -93 77 -150 -6 -55 -32 -90 -88 -119 -72 -38 -140 -19 -193 52 -31 41
-29 130 3 175 43 60 133 79 201 42z m1058 13 c28 -4 42 -10 42 -20 0 -11 -17
-14 -81 -14 l-80 0 3 -47 3 -48 68 -3 c49 -2 67 -7 67 -17 0 -10 -18 -15 -67
-17 l-68 -3 0 -45 0 -45 83 -3 c64 -2 82 -6 82 -17 0 -12 -20 -15 -106 -15
l-107 0 6 128 c4 70 7 137 7 149 0 19 5 21 53 21 28 0 71 -2 95 -4z m504 -12
c21 -21 -4 -34 -48 -24 -44 10 -89 -1 -98 -24 -12 -30 14 -53 82 -73 70 -21
92 -42 92 -85 0 -63 -75 -99 -159 -77 -58 15 -75 29 -60 47 9 11 16 11 40 -1
57 -30 139 -12 139 30 0 21 -29 45 -53 45 -12 0 -41 9 -65 20 -68 31 -79 97
-23 141 21 17 36 20 84 17 31 -2 63 -10 69 -16z m-1094 -79 c40 -49 78 -97 87
-108 13 -18 14 -10 15 88 0 100 1 107 20 107 19 0 20 -7 20 -145 0 -136 -1
-145 -19 -145 -11 0 -21 4 -23 9 -6 17 -153 201 -160 201 -5 0 -8 -47 -8 -105
0 -98 -1 -105 -20 -105 -19 0 -20 7 -20 145 0 181 5 184 108 58z"/>
<path d="M1703 1666 c-104 -34 -179 -116 -198 -219 l-7 -37 291 0 291 0 -7 33
c-16 84 -79 166 -161 206 -54 28 -153 36 -209 17z"/>
<path d="M3076 1664 c-67 -21 -156 -110 -179 -178 -26 -76 -22 -176 9 -241 92
-196 373 -224 506 -50 47 62 62 117 56 208 -6 84 -29 135 -85 188 -81 78 -202
107 -307 73z"/>
<path d="M6323 1610 c-86 -49 -126 -124 -126 -235 0 -154 100 -255 252 -255
206 0 313 247 186 430 -63 90 -209 119 -312 60z"/>
<path d="M2269 659 c-6 -31 -4 -221 3 -225 5 -3 32 -3 61 1 106 15 153 114 89
186 -23 26 -36 31 -90 36 -34 3 -62 4 -63 2z"/>
<path d="M2810 599 l0 -61 60 4 c44 3 64 9 75 24 38 50 1 94 -80 94 l-55 0 0
-61z"/>
<path d="M3347 639 c-76 -59 -41 -191 54 -205 76 -11 140 69 119 147 -19 71
-116 104 -173 58z"/>
</g>
</svg>
