<?xml version="1.0" standalone="no"?>
<!DOCTYPE svg PUBLIC "-//W3C//DTD SVG 20010904//EN"
 "http://www.w3.org/TR/2001/REC-SVG-20010904/DTD/svg10.dtd">
<svg version="1.0" xmlns="http://www.w3.org/2000/svg"
 width="650.000000pt" height="350.000000pt" viewBox="0 0 650.000000 350.000000"
 preserveAspectRatio="xMidYMid meet">

<g transform="translate(0.000000,350.000000) scale(0.100000,-0.100000)"
fill="#000000" stroke="none">
<path d="M0 1750 l0 -1750 3250 0 3250 0 0 1750 0 1750 -3250 0 -3250 0 0
-1750z m2695 1110 c11 -24 15 -44 9 -49 -5 -4 -142 -77 -304 -161 -162 -85
-315 -165 -340 -178 -62 -33 -136 -26 -218 18 -52 29 -64 32 -106 26 -45 -7
-47 -9 -32 -25 21 -23 20 -43 -4 -74 -49 -62 -169 -87 -274 -57 -49 13 -49 13
-73 -16 -14 -16 -41 -62 -60 -102 -20 -40 -44 -77 -55 -83 -18 -10 -758 -199
-777 -199 -5 0 -16 21 -25 48 -14 38 -14 49 -4 55 7 4 155 91 328 193 l315
185 123 -6 122 -7 71 43 c44 26 74 52 81 68 16 43 49 71 82 71 37 0 49 -7 65
-37 11 -21 12 -22 64 -6 68 20 123 48 130 67 3 8 17 22 31 31 25 17 774 232
812 234 15 1 26 -10 39 -39z m1544 -69 c386 -106 395 -109 425 -144 30 -35 93
-66 161 -81 26 -5 32 -2 47 24 30 52 104 35 137 -33 14 -28 38 -51 83 -79 l63
-39 130 3 130 2 300 -181 c165 -100 309 -188 320 -196 18 -13 18 -17 5 -57 -8
-23 -19 -44 -25 -46 -9 -4 -599 147 -740 189 -36 11 -43 19 -83 100 -53 106
-76 125 -131 108 -64 -19 -150 -14 -206 13 -77 36 -103 77 -81 128 6 13 0 17
-34 23 -36 6 -48 3 -92 -24 -58 -36 -126 -56 -167 -48 -16 4 -119 53 -228 111
-109 57 -261 137 -339 178 l-141 73 20 43 c12 23 28 42 36 42 9 0 193 -49 410
-109z m-879 -492 c63 -28 78 -44 202 -218 132 -183 187 -252 282 -349 114
-119 380 -338 640 -527 60 -44 121 -90 135 -101 l26 -22 -70 -7 c-105 -10
-123 -18 -238 -110 l-105 -85 -224 79 c-437 154 -524 175 -763 175 -256 1
-368 -26 -880 -210 l-119 -43 -99 80 c-126 104 -137 109 -224 109 -39 0 -74 4
-77 8 -3 5 34 38 82 74 154 116 474 369 567 447 163 136 228 210 409 461 107
147 166 213 209 236 70 37 166 38 247 3z m-1606 -63 l27 -64 237 -45 c130 -26
342 -65 469 -89 128 -24 233 -47 233 -52 0 -19 -112 -156 -177 -216 -35 -34
-99 -88 -140 -120 -73 -58 -76 -59 -106 -46 -18 7 -183 88 -367 180 l-335 167
-44 -16 c-54 -19 -111 -12 -138 17 -15 17 -18 41 -21 165 -3 138 -3 145 15
138 10 -5 50 -10 90 -13 56 -3 86 1 137 18 36 12 68 26 71 31 12 19 23 7 49
-55z m3091 26 c56 -19 83 -23 135 -19 36 3 75 8 88 12 l22 7 0 -141 c0 -137
-1 -143 -25 -166 -19 -20 -34 -25 -73 -25 -27 0 -63 5 -79 11 -29 9 -56 -2
-392 -171 -205 -102 -367 -177 -374 -173 -30 18 -188 153 -236 203 -55 56
-151 177 -151 190 0 4 24 11 53 14 28 4 158 27 287 52 129 24 296 56 370 70
249 47 222 35 250 110 19 50 28 63 40 58 8 -4 46 -18 85 -32z m-4003 -858
c389 -134 393 -136 433 -179 36 -39 134 -95 166 -95 6 0 20 11 31 25 27 35 71
33 109 -4 16 -16 29 -36 29 -44 0 -7 33 -38 73 -69 l73 -55 108 -6 c108 -6
108 -6 160 -47 119 -94 241 -184 406 -299 96 -67 176 -126 178 -131 6 -17 -39
-102 -52 -97 -7 3 -177 58 -377 122 -200 65 -370 122 -379 127 -8 6 -27 26
-42 46 -24 30 -28 45 -28 101 0 36 -6 77 -13 91 -13 24 -15 25 -101 21 -107
-4 -162 10 -216 56 -29 25 -40 42 -40 63 0 16 5 32 10 35 21 13 9 24 -33 30
-36 6 -53 2 -98 -21 -37 -20 -73 -30 -116 -32 l-62 -4 -323 193 c-178 106
-327 196 -332 201 -8 6 30 108 40 108 1 0 179 -61 396 -136z m5226 80 c13 -26
22 -47 20 -49 -31 -22 -640 -381 -664 -391 -45 -19 -127 -5 -193 31 -36 21
-53 25 -83 20 -40 -7 -55 -19 -38 -30 21 -13 10 -62 -22 -94 -45 -44 -115 -65
-202 -58 -39 2 -78 7 -86 11 -28 12 -53 -47 -45 -104 13 -95 -28 -155 -130
-190 -111 -39 -687 -220 -699 -220 -14 0 -59 78 -51 90 3 5 54 44 113 86 59
43 202 149 318 236 l212 158 99 0 100 0 69 51 c41 30 74 63 82 82 20 49 42 67
79 67 23 0 42 -8 60 -26 l27 -27 55 19 c40 13 70 32 106 69 l50 50 305 104
c168 58 339 117 380 132 104 39 112 38 138 -17z m-2563 -477 c91 -20 207 -56
220 -68 18 -17 -76 -99 -160 -139 -103 -49 -199 -70 -324 -70 -124 0 -225 20
-318 65 -67 31 -173 115 -173 137 0 16 179 71 285 88 88 13 387 5 470 -13z
m-2140 -146 c10 -18 120 -53 185 -59 l64 -7 8 -41 c3 -23 19 -66 35 -95 15
-30 29 -57 31 -62 3 -6 -439 -227 -454 -227 -7 0 -94 139 -94 150 0 5 26 53
59 107 32 54 77 131 100 171 41 70 54 82 66 63z m3879 -170 c53 -90 96 -166
96 -168 0 -3 -20 -38 -45 -78 l-46 -73 -197 94 c-239 115 -263 127 -259 134
34 60 67 142 67 168 0 32 0 32 49 32 50 0 155 29 201 54 14 8 28 12 31 8 3 -4
50 -81 103 -171z"/>
<path d="M1605 2459 c-33 -21 -104 -26 -122 -8 -8 8 -18 6 -37 -6 -14 -10 -26
-21 -26 -25 0 -15 106 -33 154 -26 57 9 113 51 95 72 -15 18 -27 17 -64 -7z"/>
<path d="M4810 2475 c-25 -30 64 -85 138 -85 30 0 111 20 117 30 2 4 -9 17
-26 29 -29 22 -32 22 -49 6 -23 -21 -77 -14 -128 16 -40 23 -37 23 -52 4z"/>
<path d="M1403 1044 c-14 -38 56 -84 131 -86 55 -1 126 12 126 22 0 5 -14 20
-32 34 -26 20 -34 22 -42 11 -21 -27 -82 -22 -130 10 -44 30 -45 30 -53 9z"/>
<path d="M5021 1036 c-27 -32 -141 -44 -141 -15 0 6 -13 2 -30 -8 -34 -20 -37
-29 -12 -41 81 -43 261 4 239 63 -8 19 -41 20 -56 1z"/>
</g>
</svg>
